<svg width="17" height="12" viewBox="0 0 17 12" fill="none" xmlns="http://www.w3.org/2000/svg">
<path d="M4.93555 2.74902L2.22852 11H0.0478516L3.74609 1.04688H5.13379L4.93555 2.74902ZM7.18457 11L4.4707 2.74902L4.25195 1.04688H5.65332L9.37207 11H7.18457ZM7.06152 7.29492V8.90137H1.80469V7.29492H7.06152ZM14.54 9.38672V0.5H16.5225V11H14.7383L14.54 9.38672ZM9.86426 7.39062V7.24707C9.86426 6.68197 9.92806 6.16927 10.0557 5.70898C10.1833 5.24414 10.3701 4.84538 10.6162 4.5127C10.8623 4.18001 11.1654 3.92253 11.5254 3.74023C11.8854 3.55794 12.2956 3.4668 12.7559 3.4668C13.1888 3.4668 13.5671 3.55794 13.8906 3.74023C14.2188 3.92253 14.4967 4.18229 14.7246 4.51953C14.957 4.85221 15.1439 5.24642 15.2852 5.70215C15.4264 6.15332 15.529 6.64779 15.5928 7.18555V7.5C15.529 8.01497 15.4264 8.49349 15.2852 8.93555C15.1439 9.3776 14.957 9.76497 14.7246 10.0977C14.4967 10.4258 14.2188 10.681 13.8906 10.8633C13.5625 11.0456 13.1797 11.1367 12.7422 11.1367C12.2819 11.1367 11.8717 11.0433 11.5117 10.8564C11.1562 10.6696 10.8555 10.4076 10.6094 10.0703C10.3678 9.73307 10.1833 9.33659 10.0557 8.88086C9.92806 8.42513 9.86426 7.92839 9.86426 7.39062ZM11.833 7.24707V7.39062C11.833 7.69596 11.8558 7.98079 11.9014 8.24512C11.9515 8.50944 12.0312 8.74414 12.1406 8.94922C12.2546 9.14974 12.4004 9.30697 12.5781 9.4209C12.7604 9.53027 12.9814 9.58496 13.2412 9.58496C13.5785 9.58496 13.8564 9.50977 14.0752 9.35938C14.2939 9.20443 14.4603 8.99251 14.5742 8.72363C14.6927 8.45475 14.7611 8.14486 14.7793 7.79395V6.89844C14.7656 6.61133 14.7246 6.35384 14.6562 6.12598C14.5924 5.89355 14.4967 5.69531 14.3691 5.53125C14.2461 5.36719 14.0911 5.23958 13.9043 5.14844C13.722 5.05729 13.5055 5.01172 13.2549 5.01172C12.9997 5.01172 12.7809 5.07096 12.5986 5.18945C12.4163 5.30339 12.2682 5.46061 12.1543 5.66113C12.0449 5.86165 11.9629 6.09863 11.9082 6.37207C11.8581 6.64095 11.833 6.93262 11.833 7.24707Z" fill="#885FFB"/>
</svg>
